<svg width="28" height="28" viewBox="0 0 28 28" fill="none" xmlns="http://www.w3.org/2000/svg">
<path d="M12.6 0C9.25827 0 6.05341 1.3275 3.69045 3.69045C1.3275 6.05341 0 9.25827 0 12.6C0 15.9417 1.3275 19.1466 3.69045 21.5095C6.05341 23.8725 9.25827 25.2 12.6 25.2C15.9417 25.2 19.1466 23.8725 21.5095 21.5095C23.8725 19.1466 25.2 15.9417 25.2 12.6C25.2 9.25827 23.8725 6.05341 21.5095 3.69045C19.1466 1.3275 15.9417 0 12.6 0ZM1.554 13.552H5.068C5.124 14.826 5.3018 16.0916 5.6 17.332H2.576C2.01322 16.1428 1.66713 14.8628 1.554 13.552ZM13.552 5.992V1.666C14.9012 2.17871 16.0098 3.17747 16.66 4.466C16.9475 4.95227 17.1995 5.45627 17.416 5.978L13.552 5.992ZM18.06 7.882C18.3848 9.1182 18.578 10.3852 18.634 11.662H13.552V7.882H18.06ZM11.648 1.666V5.992H7.784C7.99984 5.47072 8.25248 4.96544 8.54 4.48C9.18746 3.18619 10.2964 2.18213 11.648 1.666ZM11.648 7.882V11.662H6.58C6.636 10.3852 6.8292 9.1182 7.154 7.882H11.648ZM5.068 11.648H1.554C1.66713 10.3372 2.01322 9.05719 2.576 7.868H5.6C5.3001 9.10769 5.12192 10.3737 5.068 11.648ZM6.58 13.552H11.648V17.332H7.154C6.83048 16.0956 6.63809 14.8287 6.58 13.552ZM11.662 19.152V23.478C10.3128 22.9653 9.20422 21.9665 8.554 20.678C8.26648 20.1926 8.01384 19.6873 7.798 19.166L11.662 19.152ZM13.552 23.478V19.222H17.416C17.2002 19.7433 16.9475 20.2486 16.66 20.734C16.0098 22.0225 14.9012 23.0213 13.552 23.534V23.478ZM13.552 17.262V13.482H18.62C18.5619 14.7587 18.3695 16.0256 18.046 17.262H13.552ZM20.146 13.482H23.66C23.5469 14.7928 23.2008 16.0728 22.638 17.262H19.6C19.894 16.044 20.0718 14.8022 20.132 13.552L20.146 13.482ZM20.146 11.592C20.083 10.3407 19.9002 9.09837 19.6 7.882H22.624C23.1882 9.072 23.534 10.3516 23.646 11.662L20.146 11.592ZM21.546 5.992H19.04C18.587 4.71822 17.9298 3.52664 17.094 2.464C18.8361 3.24601 20.3494 4.46047 21.49 5.992H21.546ZM8.106 2.464C7.27023 3.52664 6.61298 4.71822 6.16 5.992H3.71C4.85061 4.46047 6.36387 3.24601 8.106 2.464ZM3.696 19.264H6.16C6.61298 20.5378 7.27023 21.7294 8.106 22.792C6.35905 21.9982 4.84533 20.7689 3.71 19.222L3.696 19.264ZM17.08 22.792C17.9158 21.7294 18.573 20.5378 19.026 19.264H21.49C20.3424 20.775 18.8298 21.9697 17.094 22.736L17.08 22.792Z" fill="white"/>
</svg>
