<svg width="1920" height="1080" viewBox="0 0 1920 1080" fill="none" xmlns="http://www.w3.org/2000/svg">
<g clip-path="url(#clip0_2139_9)">
<path d="M1926.5 486L2.95512 713L0 860L1926.5 633.5V486Z" fill="white" fill-opacity="0.1"/>
<path d="M1534.39 611L1927 564V598.5L1527 646L1534.39 611Z" fill="black" fill-opacity="0.05"/>
<path d="M0 563V630L1922.5 410V342.5L0 563Z" fill="white" fill-opacity="0.15"/>
<path d="M0 160V227L1923 -2V-69.5L0 160Z" fill="white" fill-opacity="0.15"/>
<path d="M1921 307.5L1 528V564L1921 343V307.5Z" fill="white" fill-opacity="0.08"/>
<path d="M1923 244.5L3 479V507L1923 272V244.5Z" fill="white" fill-opacity="0.08"/>
<path d="M0 297.149V479L1923 244.35V63L0 297.149Z" fill="white" fill-opacity="0.15"/>
<path d="M3 363L1385.5 187L1377.38 201.5L3 376V363Z" fill="black" fill-opacity="0.09"/>
</g>
<defs>
<clipPath id="clip0_2139_9">
<rect width="1920" height="1080" fill="white"/>
</clipPath>
</defs>
</svg>
