<svg width="24" height="24" viewBox="0 0 24 24" fill="none" xmlns="http://www.w3.org/2000/svg">
<path d="M12 10.3334C12.884 10.3334 13.7319 9.98223 14.357 9.3571C14.9821 8.73198 15.3333 7.88414 15.3333 7.00008C15.3333 6.11603 14.9821 5.26818 14.357 4.64306C13.7319 4.01794 12.884 3.66675 12 3.66675C11.1159 3.66675 10.2681 4.01794 9.64294 4.64306C9.01782 5.26818 8.66663 6.11603 8.66663 7.00008C8.66663 7.88414 9.01782 8.73198 9.64294 9.3571C10.2681 9.98223 11.1159 10.3334 12 10.3334ZM6.58329 12.8334C7.13583 12.8334 7.66573 12.6139 8.05643 12.2232C8.44713 11.8325 8.66663 11.3026 8.66663 10.7501C8.66663 10.1975 8.44713 9.66764 8.05643 9.27694C7.66573 8.88624 7.13583 8.66675 6.58329 8.66675C6.03076 8.66675 5.50085 8.88624 5.11015 9.27694C4.71945 9.66764 4.49996 10.1975 4.49996 10.7501C4.49996 11.3026 4.71945 11.8325 5.11015 12.2232C5.50085 12.6139 6.03076 12.8334 6.58329 12.8334ZM19.5 10.7501C19.5 11.3026 19.2805 11.8325 18.8898 12.2232C18.4991 12.6139 17.9692 12.8334 17.4166 12.8334C16.8641 12.8334 16.3342 12.6139 15.9435 12.2232C15.5528 11.8325 15.3333 11.3026 15.3333 10.7501C15.3333 10.1975 15.5528 9.66764 15.9435 9.27694C16.3342 8.88624 16.8641 8.66675 17.4166 8.66675C17.9692 8.66675 18.4991 8.88624 18.8898 9.27694C19.2805 9.66764 19.5 10.1975 19.5 10.7501ZM12 11.1667C13.105 11.1667 14.1648 11.6057 14.9462 12.3871C15.7276 13.1685 16.1666 14.2283 16.1666 15.3334V20.3334H7.83329V15.3334C7.83329 14.2283 8.27228 13.1685 9.05368 12.3871C9.83508 11.6057 10.8949 11.1667 12 11.1667ZM6.16663 15.3334C6.16663 14.7559 6.24996 14.1984 6.40663 13.6717L6.26496 13.6834C5.55069 13.7618 4.89051 14.1012 4.41101 14.6363C3.93151 15.1715 3.66644 15.8649 3.66663 16.5834V20.3334H6.16663V15.3334ZM20.3333 20.3334V16.5834C20.3334 15.8404 20.0499 15.1253 19.5407 14.5842C19.0315 14.0431 18.335 13.7168 17.5933 13.6717C17.7491 14.1984 17.8333 14.7559 17.8333 15.3334V20.3334H20.3333Z" fill="white"/>
</svg>
