<svg width="26" height="26" viewBox="0 0 26 26" fill="none" xmlns="http://www.w3.org/2000/svg">
<path d="M8.39583 5.95825C8.39583 5.31179 8.65264 4.6918 9.10976 4.23468C9.56688 3.77756 10.1869 3.52075 10.8333 3.52075H20.5833C21.2298 3.52075 21.8498 3.77756 22.3069 4.23468C22.764 4.6918 23.0208 5.31179 23.0208 5.95825V15.7083C23.0208 16.3547 22.764 16.9747 22.3069 17.4318C21.8498 17.8889 21.2298 18.1458 20.5833 18.1458H18.6875V20.0416C18.6875 20.6881 18.4307 21.308 17.9736 21.7652C17.5165 22.2223 16.8965 22.4791 16.25 22.4791H6.5C5.85353 22.4791 5.23355 22.2223 4.77643 21.7652C4.31931 21.308 4.0625 20.6881 4.0625 20.0416V10.2916C4.0625 9.64512 4.31931 9.02513 4.77643 8.56801C5.23355 8.11089 5.85353 7.85409 6.5 7.85409H8.39583V5.95825ZM17.0625 10.2916C17.0625 10.0761 16.9769 9.86943 16.8245 9.71706C16.6722 9.56469 16.4655 9.47909 16.25 9.47909H6.5C6.28451 9.47909 6.07785 9.56469 5.92548 9.71706C5.7731 9.86943 5.6875 10.0761 5.6875 10.2916V17.8121L11.8278 14.6293C12.2737 14.3979 12.7802 14.3099 13.278 14.3774C13.7758 14.4449 14.2406 14.6645 14.6088 15.0063L17.0625 17.2856V10.2916ZM5.6875 20.0416C5.6875 20.4901 6.0515 20.8541 6.5 20.8541H16.25C16.4655 20.8541 16.6722 20.7685 16.8245 20.6161C16.9769 20.4637 17.0625 20.2571 17.0625 20.0416V19.5032L13.5027 16.1979C13.3801 16.084 13.2254 16.0107 13.0596 15.988C12.8938 15.9653 12.7251 15.9943 12.5764 16.0712L5.6875 19.6429V20.0416ZM10.0208 7.85409H16.25C16.8965 7.85409 17.5165 8.11089 17.9736 8.56801C18.4307 9.02513 18.6875 9.64512 18.6875 10.2916V16.5208H20.5833C20.7988 16.5208 21.0055 16.4351 21.1579 16.2828C21.3102 16.1304 21.3958 15.9237 21.3958 15.7083V5.95825C21.3958 5.74276 21.3102 5.5361 21.1579 5.38373C21.0055 5.23135 20.7988 5.14575 20.5833 5.14575H10.8333C10.6178 5.14575 10.4112 5.23135 10.2588 5.38373C10.1064 5.5361 10.0208 5.74276 10.0208 5.95825V7.85409Z" fill="white"/>
</svg>
