<svg width="25" height="25" viewBox="0 0 25 25" fill="none" xmlns="http://www.w3.org/2000/svg">
<path d="M4.375 13.75C4.87228 13.75 5.34919 13.5525 5.70083 13.2008C6.05246 12.8492 6.25 12.3723 6.25 11.875C6.25 11.3777 6.05246 10.9008 5.70083 10.5492C5.34919 10.1975 4.87228 10 4.375 10C3.87772 10 3.40081 10.1975 3.04917 10.5492C2.69754 10.9008 2.5 11.3777 2.5 11.875C2.5 12.3723 2.69754 12.8492 3.04917 13.2008C3.40081 13.5525 3.87772 13.75 4.375 13.75ZM10 13.75C10.4973 13.75 10.9742 13.5525 11.3258 13.2008C11.6775 12.8492 11.875 12.3723 11.875 11.875C11.875 11.3777 11.6775 10.9008 11.3258 10.5492C10.9742 10.1975 10.4973 10 10 10C9.50272 10 9.02581 10.1975 8.67417 10.5492C8.32254 10.9008 8.125 11.3777 8.125 11.875C8.125 12.3723 8.32254 12.8492 8.67417 13.2008C9.02581 13.5525 9.50272 13.75 10 13.75ZM15.625 13.75C16.1223 13.75 16.5992 13.5525 16.9508 13.2008C17.3025 12.8492 17.5 12.3723 17.5 11.875C17.5 11.3777 17.3025 10.9008 16.9508 10.5492C16.5992 10.1975 16.1223 10 15.625 10C15.1277 10 14.6508 10.1975 14.2992 10.5492C13.9475 10.9008 13.75 11.3777 13.75 11.875C13.75 12.3723 13.9475 12.8492 14.2992 13.2008C14.6508 13.5525 15.1277 13.75 15.625 13.75ZM23.125 11.875C23.125 12.3723 22.9275 12.8492 22.5758 13.2008C22.2242 13.5525 21.7473 13.75 21.25 13.75C20.7527 13.75 20.2758 13.5525 19.9242 13.2008C19.5725 12.8492 19.375 12.3723 19.375 11.875C19.375 11.3777 19.5725 10.9008 19.9242 10.5492C20.2758 10.1975 20.7527 10 21.25 10C21.7473 10 22.2242 10.1975 22.5758 10.5492C22.9275 10.9008 23.125 11.3777 23.125 11.875Z" fill="white"/>
</svg>
