<svg width="24" height="24" viewBox="0 0 24 24" fill="none" xmlns="http://www.w3.org/2000/svg">
<path d="M18.713 8.1281L18.467 8.6941C18.4286 8.78627 18.3637 8.865 18.2806 8.92038C18.1975 8.97575 18.0999 9.00531 18 9.00531C17.9001 9.00531 17.8025 8.97575 17.7194 8.92038C17.6363 8.865 17.5715 8.78627 17.533 8.6941L17.287 8.1281C16.8545 7.12683 16.0624 6.32402 15.067 5.8781L14.308 5.5391C14.2159 5.49675 14.1379 5.42887 14.0832 5.34353C14.0286 5.25819 13.9995 5.15896 13.9995 5.0576C13.9995 4.95625 14.0286 4.85702 14.0832 4.77168C14.1379 4.68633 14.2159 4.61846 14.308 4.5761L15.025 4.2571C16.0454 3.79848 16.8511 2.96599 17.276 1.9311L17.529 1.3201C17.5662 1.22546 17.631 1.1442 17.715 1.08693C17.799 1.02966 17.8983 0.999023 18 0.999023C18.1017 0.999023 18.201 1.02966 18.285 1.08693C18.369 1.1442 18.4338 1.22546 18.471 1.3201L18.724 1.9301C19.1485 2.96518 19.9538 3.79804 20.974 4.2571L21.692 4.5771C21.7838 4.61958 21.8615 4.68745 21.916 4.77268C21.9705 4.85791 21.9994 4.95695 21.9994 5.0581C21.9994 5.15926 21.9705 5.2583 21.916 5.34353C21.8615 5.42876 21.7838 5.49662 21.692 5.5391L20.932 5.8771C19.9368 6.32347 19.1451 7.12663 18.713 8.1281ZM7.00001 3.0001H12V6.0001H9.00001V17.0001C8.99981 17.8806 8.70909 18.7364 8.17294 19.4349C7.63679 20.1333 6.88517 20.6353 6.03463 20.8631C5.1841 21.0908 4.28218 21.0316 3.46875 20.6945C2.65533 20.3574 1.97584 19.7614 1.53568 18.9988C1.09552 18.2362 0.919269 17.3497 1.03427 16.4768C1.14927 15.6038 1.5491 14.7932 2.17174 14.1706C2.79438 13.548 3.60504 13.1483 4.47801 13.0334C5.35098 12.9185 6.23747 13.0949 7.00001 13.5351V3.0001ZM18 13.5351V11.0001H20V17.0001C19.9998 17.8806 19.7091 18.7364 19.1729 19.4349C18.6368 20.1333 17.8852 20.6353 17.0346 20.8631C16.1841 21.0908 15.2822 21.0316 14.4688 20.6945C13.6553 20.3574 12.9758 19.7614 12.5357 18.9988C12.0955 18.2362 11.9193 17.3497 12.0343 16.4768C12.1493 15.6038 12.5491 14.7932 13.1717 14.1706C13.7944 13.548 14.605 13.1483 15.478 13.0334C16.351 12.9185 17.2375 13.0949 18 13.5351Z" fill="white"/>
</svg>
