<svg width="25" height="25" viewBox="0 0 25 25" fill="none" xmlns="http://www.w3.org/2000/svg">
<g clip-path="url(#clip0_24_213)">
<path d="M18.1767 19.6001L14 16.9167L9.82337 19.6001L11.0834 14.7934L7.24504 11.6667L12.2034 11.3634L14 6.76675L15.7967 11.3634L20.755 11.6667L16.9167 14.7934M23.3334 14.0001C23.3334 13.3812 23.5792 12.7878 24.0168 12.3502C24.4544 11.9126 25.0479 11.6667 25.6667 11.6667V7.00008C25.6667 6.38124 25.4209 5.78775 24.9833 5.35017C24.5457 4.91258 23.9522 4.66675 23.3334 4.66675H4.66671C4.04787 4.66675 3.45438 4.91258 3.01679 5.35017C2.57921 5.78775 2.33337 6.38124 2.33337 7.00008V11.6667C2.95221 11.6667 3.54571 11.9126 3.98329 12.3502C4.42088 12.7878 4.66671 13.3812 4.66671 14.0001C4.66671 14.6189 4.42088 15.2124 3.98329 15.65C3.54571 16.0876 2.95221 16.3334 2.33337 16.3334V21.0001C2.33337 21.6189 2.57921 22.2124 3.01679 22.65C3.45438 23.0876 4.04787 23.3334 4.66671 23.3334H23.3334C23.9522 23.3334 24.5457 23.0876 24.9833 22.65C25.4209 22.2124 25.6667 21.6189 25.6667 21.0001V16.3334C25.0479 16.3334 24.4544 16.0876 24.0168 15.65C23.5792 15.2124 23.3334 14.6189 23.3334 14.0001Z" fill="white"/>
</g>
<defs>
<clipPath id="clip0_24_213">
<rect width="25" height="25" fill="white"/>
</clipPath>
</defs>
</svg>
