<svg width="24" height="24" viewBox="0 0 24 24" fill="none" xmlns="http://www.w3.org/2000/svg">
<g clip-path="url(#clip0_24_225)">
<path fill-rule="evenodd" clip-rule="evenodd" d="M10.9999 2.16675C5.0169 2.16675 0.166626 7.01697 0.166626 13.0001C0.166626 18.9831 5.0169 23.8334 10.9999 23.8334C16.9831 23.8334 21.8333 18.9832 21.8333 13.0001C21.8333 7.01697 16.9831 2.16675 10.9999 2.16675ZM10.9999 21.6667C6.22117 21.6667 2.33331 17.7789 2.33331 13.0001C2.33331 8.22124 6.22112 4.33343 10.9999 4.33343C15.7788 4.33343 19.6666 8.22124 19.6666 13.0001C19.6666 17.7789 15.7788 21.6667 10.9999 21.6667ZM12.3565 8.66675C12.3565 9.45223 11.7846 10.0209 11.011 10.0209C10.206 10.0209 9.64815 9.45218 9.64815 8.65172C9.64815 7.88238 10.2211 7.31262 11.011 7.31262C11.7846 7.31262 12.3565 7.88238 12.3565 8.66675ZM9.91901 11.9167H12.0856V18.4167H9.91901V11.9167Z" fill="white"/>
</g>
<defs>
<clipPath id="clip0_24_225">
<rect width="24" height="24" fill="white"/>
</clipPath>
</defs>
</svg>
