<svg width="31" height="31" viewBox="0 0 31 31" fill="none" xmlns="http://www.w3.org/2000/svg">
<path d="M27.125 10.3333V20.6667C27.125 22.3795 26.4446 24.0222 25.2334 25.2334C24.0222 26.4446 22.3795 27.125 20.6667 27.125H10.3333C8.62048 27.125 6.97777 26.4446 5.7666 25.2334C4.55543 24.0222 3.875 22.3795 3.875 20.6667V10.3333C3.875 8.62048 4.55543 6.97777 5.7666 5.7666C6.97777 4.55543 8.62048 3.875 10.3333 3.875H20.6667C22.3795 3.875 24.0222 4.55543 25.2334 5.7666C26.4446 6.97777 27.125 8.62048 27.125 10.3333Z" stroke="white" stroke-width="1.5" stroke-linecap="round" stroke-linejoin="round"/>
<path d="M12.9166 15.5C12.1502 15.5 11.401 15.7273 10.7638 16.1531C10.1266 16.5788 9.62988 17.184 9.33659 17.8921C9.0433 18.6002 8.96657 19.3793 9.11608 20.131C9.2656 20.8827 9.63466 21.5731 10.1766 22.115C10.7185 22.657 11.409 23.026 12.1607 23.1755C12.9123 23.3251 13.6915 23.2483 14.3995 22.955C15.1076 22.6617 15.7128 22.1651 16.1386 21.5278C16.5644 20.8906 16.7916 20.1414 16.7916 19.375V7.75C17.2218 9.04167 18.8583 11.625 21.9583 11.625" stroke="white" stroke-width="1.5" stroke-linecap="round" stroke-linejoin="round"/>
</svg>
