<svg width="28" height="28" viewBox="0 0 28 28" fill="none" xmlns="http://www.w3.org/2000/svg">
<path d="M10.5 3.50008V1.16675H17.5V3.50008H10.5ZM12.8333 16.3334H15.1667V9.33341H12.8333V16.3334ZM14 25.6667C12.5611 25.6667 11.2047 25.3899 9.93067 24.8361C8.65667 24.2823 7.54367 23.5286 6.59167 22.5751C5.63967 21.6215 4.88639 20.5081 4.33183 19.2349C3.77728 17.9617 3.5 16.6056 3.5 15.1667C3.5 13.7279 3.77728 12.3714 4.33183 11.0974C4.88639 9.82341 5.63967 8.71041 6.59167 7.75841C7.54367 6.80641 8.65705 6.05314 9.93183 5.49858C11.2066 4.94403 12.5627 4.66675 14 4.66675C15.2056 4.66675 16.3625 4.86119 17.4708 5.25008C18.5792 5.63897 19.6194 6.20286 20.5917 6.94175L22.225 5.30841L23.8583 6.94175L22.225 8.57508C22.9639 9.5473 23.5278 10.5876 23.9167 11.6959C24.3056 12.8042 24.5 13.9612 24.5 15.1667C24.5 16.6056 24.2227 17.9621 23.6682 19.2361C23.1136 20.5101 22.3603 21.6231 21.4083 22.5751C20.4563 23.5271 19.3429 24.2807 18.0682 24.8361C16.7934 25.3914 15.4373 25.6683 14 25.6667Z" fill="white"/>
</svg>
