<svg width="25" height="25" viewBox="0 0 25 25" fill="none" xmlns="http://www.w3.org/2000/svg">
<path d="M19.8438 5.11456C18.8887 4.15008 17.7511 3.38536 16.4975 2.86494C15.2438 2.34451 13.8991 2.07881 12.5417 2.08331C6.85425 2.08331 2.21883 6.71872 2.21883 12.4062C2.21883 14.2291 2.698 16 3.59383 17.5625L2.1355 22.9166L7.60425 21.4791C9.11466 22.3021 10.8126 22.7396 12.5417 22.7396C18.2292 22.7396 22.8647 18.1041 22.8647 12.4166C22.8647 9.65622 21.7917 7.06247 19.8438 5.11456ZM12.5417 20.9896C11.0001 20.9896 9.48966 20.5729 8.16675 19.7916L7.85425 19.6041L4.60425 20.4583L5.46883 17.2916L5.2605 16.9687C4.40378 15.6011 3.94896 14.0201 3.948 12.4062C3.948 7.67706 7.80216 3.82289 12.5313 3.82289C14.823 3.82289 16.9792 4.71872 18.5938 6.34372C19.3934 7.13942 20.0271 8.08596 20.458 9.12844C20.889 10.1709 21.1086 11.2886 21.1042 12.4166C21.1251 17.1458 17.2709 20.9896 12.5417 20.9896ZM17.2501 14.5729C16.9897 14.4479 15.7188 13.8229 15.4897 13.7291C15.2501 13.6458 15.0834 13.6041 14.9063 13.8541C14.7292 14.1146 14.2397 14.6979 14.0938 14.8646C13.948 15.0416 13.7917 15.0625 13.5313 14.9271C13.2709 14.8021 12.4376 14.5208 11.4584 13.6458C10.6876 12.9583 10.1772 12.1146 10.0209 11.8541C9.87508 11.5937 10.0001 11.4583 10.1355 11.3229C10.2501 11.2083 10.3959 11.0208 10.5209 10.875C10.6459 10.7291 10.698 10.6146 10.7813 10.4479C10.8647 10.2708 10.823 10.125 10.7605 9.99997C10.698 9.87497 10.1772 8.60414 9.96883 8.08331C9.7605 7.58331 9.54175 7.64581 9.3855 7.63539H8.8855C8.70841 7.63539 8.43758 7.69789 8.198 7.95831C7.96883 8.21872 7.30216 8.84372 7.30216 10.1146C7.30216 11.3854 8.22925 12.6146 8.35425 12.7812C8.47925 12.9583 10.1772 15.5625 12.7605 16.6771C13.3751 16.9479 13.8542 17.1041 14.2292 17.2187C14.8438 17.4166 15.4063 17.3854 15.8542 17.3229C16.3542 17.25 17.3855 16.6979 17.5938 16.0937C17.8126 15.4896 17.8126 14.9791 17.7397 14.8646C17.6667 14.75 17.5105 14.6979 17.2501 14.5729Z" fill="white"/>
</svg>
